<svg xmlns="http://www.w3.org/2000/svg" xmlns:svgjs="http://svgjs.com/svgjs" xmlns:xlink="http://www.w3.org/1999/xlink" width="288" height="288"><svg xmlns="http://www.w3.org/2000/svg" width="288" height="288" viewBox="0 0 183.99 184.013"><path fill="#f31400" d="m181.565 150.724-69-138.01a23 23 0 0 0-41.138 0l-69 138.01a23 23 0 0 0 20.571 33.289H160.99a23 23 0 0 0 20.575-33.289Zm-78.079 4.537a5.745 5.745 0 0 1-5.75 5.75h-11.5a5.745 5.745 0 0 1-5.75-5.75v-11.5a5.745 5.745 0 0 1 5.75-5.75h11.5a5.745 5.745 0 0 1 5.75 5.75Zm0-46a5.745 5.745 0 0 1-5.75 5.75h-11.5a5.745 5.745 0 0 1-5.75-5.75v-57.5A5.749 5.749 0 0 1 86.235 46h11.5a5.749 5.749 0 0 1 5.75 5.75Z" class="color286ff9 svgShape"/></svg></svg>