<svg xmlns="http://www.w3.org/2000/svg" xmlns:svgjs="http://svgjs.com/svgjs" xmlns:xlink="http://www.w3.org/1999/xlink" width="288" height="288"><svg xmlns="http://www.w3.org/2000/svg" width="288" height="288" viewBox="0 0 101 101"><path fill="#20ab93" d="M50.5 16.4c-18.8 0-34.1 15.3-34.1 34.1s15.3 34.1 34.1 34.1 34.1-15.3 34.1-34.1-15.3-34.1-34.1-34.1zm0 63.4c-16.1 0-29.3-13.1-29.3-29.3s13.1-29.3 29.3-29.3 29.3 13.1 29.3 29.3-13.2 29.3-29.3 29.3z" class="color000 svgShape"/><path fill="#20ab93" d="M66.2 47.8H34.8c-1.3 0-2.4 1.1-2.4 2.4s1.1 2.4 2.4 2.4h31.4c1.3 0 2.4-1.1 2.4-2.4s-1.1-2.4-2.4-2.4z" class="color000 svgShape"/></svg></svg>